HIERARCHY
ROOT Hips
{
	OFFSET -3.958830 18.904000 13.208200
	CHANNELS 6 Xposition Yposition Zposition Zrotation Yrotation Xrotation 
	JOINT LHipJoint
	{
		OFFSET 0.000000 0.000000 0.000000
		CHANNELS 3 Zrotation Yrotation Xrotation
		JOINT LeftUpLeg
		{
			OFFSET 1.800000 -1.400000 0.085000
			CHANNELS 3 Zrotation Yrotation Xrotation
			JOINT LeftLeg
			{
				OFFSET 2.215000 -6.000000 0.000000
				CHANNELS 3 Zrotation Yrotation Xrotation
				JOINT LeftFoot
				{
					OFFSET 2.500000 -6.900000 0.000000
					CHANNELS 3 Zrotation Yrotation Xrotation
					JOINT LeftToeBase
					{
						OFFSET 0.200000 -0.500000 1.950000
						CHANNELS 3 Zrotation Yrotation Xrotation
						End Site
						{
							OFFSET 0.000000 0.000000 0.000000
						}
					}
				}
			}
		}
	}
	JOINT RHipJoint
	{
		OFFSET 0.000000 0.000000 0.000000
		CHANNELS 3 Zrotation Yrotation Xrotation
		JOINT RightUpLeg
		{
			OFFSET -1.800000 -1.400000 0.085000
			CHANNELS 3 Zrotation Yrotation Xrotation
			JOINT RightLeg
			{
				OFFSET -2.215000 -6.000000 0.000000
				CHANNELS 3 Zrotation Yrotation Xrotation
				JOINT RightFoot
				{
					OFFSET -2.500000 -6.900000 0.000000
					CHANNELS 3 Zrotation Yrotation Xrotation
					JOINT RightToeBase
					{
						OFFSET -0.200000 -0.500000 1.950000
						CHANNELS 3 Zrotation Yrotation Xrotation
						End Site
						{
							OFFSET 0.000000 0.000000 0.000000
						}
					}
				}
			}
		}
	}
	JOINT LowerBack
	{
		OFFSET 0.000000 0.000000 0.000000
		CHANNELS 3 Zrotation Yrotation Xrotation
		JOINT Spine
		{
			OFFSET -0.087000 1.940000 -0.288900
			CHANNELS 3 Zrotation Yrotation Xrotation
			JOINT Spine1
			{
				OFFSET 0.000000 1.950000 0.060000
				CHANNELS 3 Zrotation Yrotation Xrotation
				JOINT Neck
				{
					OFFSET 0.000000 0.000000 0.000000
					CHANNELS 3 Zrotation Yrotation Xrotation
					JOINT Neck1
					{
						OFFSET 0.000000 1.600000 0.340000
						CHANNELS 3 Zrotation Yrotation Xrotation
						JOINT Head
						{
							OFFSET 0.000000 1.667000 -0.240000
							CHANNELS 3 Zrotation Yrotation Xrotation
							End Site
							{
								OFFSET 0.000000 0.000000 0.000000
							}
						}
					}
				}
				JOINT LeftShoulder
				{
					OFFSET 0.000000 0.000000 0.000000
					CHANNELS 3 Zrotation Yrotation Xrotation
					JOINT LeftArm
					{
						OFFSET 2.700000 1.550000 -0.730000
						CHANNELS 3 Zrotation Yrotation Xrotation
						JOINT LeftForeArm
						{
							OFFSET 5.450000 0.000000 0.000000
							CHANNELS 3 Zrotation Yrotation Xrotation
							JOINT LeftHand
							{
								OFFSET 3.450000 0.000000 0.000000
								CHANNELS 3 Zrotation Yrotation Xrotation
								JOINT LeftHandIndex1
								{
									OFFSET 0.750000 0.000000 0.000000
									CHANNELS 3 Zrotation Yrotation Xrotation
									End Site
									{
										OFFSET 0.000000 0.000000 0.000000
									}
								}
							}
						}
					}
				}
				JOINT RightShoulder
				{
					OFFSET 0.000000 0.000000 0.000000
					CHANNELS 3 Zrotation Yrotation Xrotation
					JOINT RightArm
					{
						OFFSET -2.700000 1.550000 -0.730000
						CHANNELS 3 Zrotation Yrotation Xrotation
						JOINT RightForeArm
						{
							OFFSET -5.450000 0.000000 0.000000
							CHANNELS 3 Zrotation Yrotation Xrotation
							JOINT RightHand
							{
								OFFSET -3.450000 0.000000 0.000000
								CHANNELS 3 Zrotation Yrotation Xrotation
								JOINT RightHandIndex1
								{
									OFFSET -0.750000 0.000000 0.000000
									CHANNELS 3 Zrotation Yrotation Xrotation
									End Site
									{
										OFFSET 0.000000 0.000000 0.000000
									}
								}
							}
						}
					}
				}
			}
		}
	}
}
MOTION
Frames: 9
Frame Time: 0.016667
-0.283760 17.232270 -2.308860 0.323485 21.859001 -3.477955 -14.346179 11.759892 2.831418 1.109475 -0.862262 -6.926995 -10.611560 5.661493 9.745751 -0.455528 3.652352 3.338585 0.685660 0.678550 0.243640 18.976077 -12.330664 3.193456 -9.091070 3.807824 -13.203459 17.677486 -10.848241 28.296351 -0.961593 -5.891151 2.173014 0.418020 0.022150 0.100620 -6.471924 3.419864 -8.296321 22.652316 -2.740176 23.723648 -18.481186 2.145295 22.724262 6.360530 -5.712935 -13.093972 -9.972716 0.575508 46.551641 12.318400 -8.436720 -30.109240 -21.876858 -29.258268 10.772747 -23.325265 -5.753541 -10.877007 24.684243 -46.279230 -12.331784 -3.180479 3.002032 0.619210 -0.260510 0.256630 0.199970 11.373481 38.735605 7.189151 31.527397 53.252567 0.161531 -6.244180 70.303257 -5.853816 1.508396 -0.885667 -0.022450 0.433510 -0.066050 -0.025570 
-0.271890 17.223590 -2.296390 0.520224 22.088688 -3.617692 -14.338141 11.721899 2.823109 1.092801 -0.772561 -6.488450 -10.944766 5.758422 9.627687 -0.433776 3.716023 3.324651 0.677450 0.672150 0.221310 18.994238 -12.326333 3.179053 -9.511721 3.889060 -13.209720 17.862528 -11.073090 28.852673 -0.970794 -6.013316 2.133402 0.418200 0.041270 0.097120 -6.518215 3.467815 -8.293935 22.611623 -2.829930 23.484222 -18.851781 2.007314 22.950775 6.356927 -6.222764 -13.000506 -10.883671 0.971781 46.124426 12.728110 -8.726320 -29.769700 -21.732306 -29.223989 11.015938 -23.256004 -5.462840 -10.433110 25.737370 -43.841514 -11.979006 -3.203244 3.017024 0.604890 -0.254040 0.241320 0.208080 11.321039 39.090903 6.900884 31.174792 53.116620 0.378793 -9.562018 71.493454 -8.056607 1.522346 -0.786774 -0.024600 0.438590 -0.060830 -0.012590 
-0.260120 17.216710 -2.284860 0.679939 22.289253 -3.748999 -14.331499 11.691520 2.815335 1.061719 -0.688190 -6.101525 -11.199718 5.840868 9.544268 -0.416382 3.770068 3.312171 0.667370 0.663560 0.199900 19.009903 -12.323369 3.164899 -9.843495 3.955076 -13.194506 17.974194 -11.254139 29.329266 -0.977147 -6.114140 2.100988 0.416200 0.058190 0.093620 -6.558245 3.506714 -8.288039 22.603852 -2.906339 23.272096 -19.173376 1.892471 23.127060 6.328824 -6.651189 -12.938861 -11.665658 1.306477 45.753235 13.061260 -8.961080 -29.468550 -21.661615 -29.182248 11.212352 -23.153090 -5.177407 -10.067779 26.676240 -41.827670 -11.700182 -3.225297 3.030032 0.593200 -0.248250 0.226910 0.213220 11.362077 39.366658 6.706240 30.911074 52.979163 0.573953 -12.517310 72.432248 -10.032217 1.530538 -0.696141 -0.027310 0.442670 -0.053360 -0.002160 
-0.248760 17.211570 -2.274200 0.808571 22.471484 -3.876425 -14.327178 11.670709 2.807982 1.014573 -0.608495 -5.758081 -11.367994 5.906983 9.493179 -0.401577 3.814786 3.301872 0.654290 0.651940 0.177280 19.022078 -12.320446 3.150521 -10.097617 4.013820 -13.170853 18.009331 -11.400117 29.776347 -0.981441 -6.199365 2.073318 0.411640 0.074500 0.090780 -6.589723 3.530394 -8.279508 22.600053 -2.969562 23.088105 -19.426769 1.794289 23.265615 6.272972 -7.015198 -12.918188 -12.352340 1.600941 45.446741 13.352480 -9.159610 -29.150130 -21.614853 -29.157265 11.382813 -23.064424 -4.890471 -9.788658 27.578203 -40.188141 -11.518294 -3.246694 3.041430 0.582800 -0.242560 0.213190 0.216510 11.458282 39.605513 6.596824 30.672682 52.808553 0.683544 -15.023054 73.187898 -11.734081 1.535174 -0.618889 -0.030250 0.445880 -0.043380 0.007200 
-0.237970 17.207430 -2.264330 0.917393 22.641344 -3.994743 -14.325037 11.657755 2.802315 0.951848 -0.538816 -5.456732 -11.465250 5.954757 9.457031 -0.391397 3.852234 3.293566 0.641560 0.638140 0.158050 19.030727 -12.317237 3.136676 -10.295150 4.063938 -13.140218 17.996070 -11.517900 30.181462 -0.983850 -6.270736 2.051031 0.406390 0.089080 0.089190 -6.613003 3.540309 -8.271243 22.585328 -3.020340 22.934413 -19.613109 1.713523 23.377513 6.200458 -7.310885 -12.935857 -12.929622 1.841292 45.208780 13.601770 -9.329840 -28.851450 -21.570396 -29.153059 11.526050 -22.989036 -4.613934 -9.584979 28.448729 -38.846662 -11.415874 -3.266814 3.048906 0.575920 -0.236830 0.201040 0.218620 11.574565 39.811642 6.561150 30.461472 52.633644 0.702282 -16.871048 73.744956 -13.014488 1.537035 -0.561402 -0.034590 0.448360 -0.033740 0.013700 
-0.227770 17.204370 -2.255070 0.998451 22.793394 -4.101830 -14.324868 11.651013 2.797920 0.905069 -0.475665 -5.190572 -11.532762 5.991358 9.412240 -0.383779 3.885581 3.286541 0.629280 0.623540 0.142500 19.036555 -12.311522 3.123892 -10.428563 4.112578 -13.107976 17.954694 -11.614068 30.556789 -0.985685 -6.330632 2.032680 0.400720 0.101980 0.087810 -6.628526 3.535727 -8.263428 22.570443 -3.060072 22.786967 -19.724856 1.649729 23.478190 6.116256 -7.560634 -12.990713 -13.440307 2.038260 45.033871 13.765020 -9.474510 -28.564210 -21.499679 -29.170001 11.640745 -22.935995 -4.392229 -9.417497 29.199881 -37.674528 -11.323668 -3.285002 3.052658 0.570950 -0.231480 0.190400 0.219430 11.678303 39.997736 6.590060 30.267713 52.446815 0.621990 -17.929003 74.134300 -13.788823 1.537950 -0.528904 -0.039580 0.451390 -0.024420 0.018110 
-0.218140 17.202360 -2.246900 1.063879 22.925565 -4.216447 -14.327215 11.651667 2.795074 0.865983 -0.418105 -4.945472 -11.577881 6.025574 9.391575 -0.379037 3.918277 3.278505 0.617780 0.608590 0.130090 19.038792 -12.303314 3.111369 -10.525383 4.155242 -13.058406 17.893473 -11.696175 30.906095 -0.987118 -6.383052 2.016557 0.394780 0.112810 0.087300 -6.634469 3.514546 -8.255435 22.537604 -3.099872 22.693326 -19.754951 1.584405 23.548295 6.009730 -7.784742 -13.053396 -13.920305 2.201446 44.886593 13.886260 -9.597900 -28.347560 -21.440708 -29.196466 11.730895 -22.870663 -4.201496 -9.282046 29.837368 -36.678797 -11.244936 -3.300811 3.053779 0.569010 -0.226820 0.181440 0.218400 11.828147 40.175444 6.642723 30.066809 52.244733 0.501127 -18.221767 74.417801 -14.049503 1.539709 -0.520529 -0.045100 0.453630 -0.015290 0.020600 
-0.209000 17.201100 -2.239510 1.115698 23.027197 -4.327910 -14.329981 11.656068 2.793162 0.834103 -0.366685 -4.725754 -11.609508 6.057200 9.383052 -0.375451 3.950350 3.271338 0.606520 0.592330 0.119390 19.039705 -12.294966 3.099572 -10.594420 4.197096 -13.007316 17.810845 -11.758419 31.225278 -0.987849 -6.426526 2.003660 0.388050 0.123660 0.087250 -6.636401 3.486694 -8.248833 22.514847 -3.131581 22.634109 -19.731365 1.527554 23.589867 5.883850 -8.004553 -13.126893 -14.406980 2.338962 44.764431 14.000710 -9.729900 -28.155090 -21.386691 -29.236991 11.806107 -22.787047 -4.034308 -9.165816 30.346248 -35.839459 -11.169621 -3.314511 3.053287 0.568680 -0.222560 0.173160 0.217430 12.015600 40.365786 6.710950 29.841582 52.052705 0.366568 -17.903069 74.528848 -13.855597 1.543790 -0.530962 -0.051210 0.456670 -0.006290 0.022290 
-0.200240 17.199870 -2.233060 1.166721 23.131839 -4.417010 -14.335092 11.665183 2.793361 0.795542 -0.322889 -4.539618 -11.631727 6.084840 9.381256 -0.373621 3.981808 3.264860 0.594250 0.574320 0.108770 19.037509 -12.283552 3.088524 -10.650849 4.231007 -12.968519 17.727536 -11.810112 31.505594 -0.987677 -6.462600 1.993019 0.380880 0.135210 0.087670 -6.630590 3.444830 -8.243179 22.457233 -3.156278 22.587138 -19.637510 1.471363 23.609694 5.744561 -8.194309 -13.207757 -14.840192 2.445349 44.647609 14.086200 -9.849820 -27.964700 -21.307097 -29.277410 11.863563 -22.743854 -3.900360 -9.070732 30.803363 -35.144145 -11.123865 -3.327405 3.049899 0.569530 -0.217800 0.165250 0.216480 12.198942 40.533140 6.801051 29.647921 51.872700 0.227664 -17.167493 74.559436 -13.375712 1.546735 -0.553754 -0.058600 0.460810 0.003530 0.023200 
